<svg width="152" height="50" viewBox="0 0 152 50" fill="none" xmlns="http://www.w3.org/2000/svg">
<rect width="152" height="50" rx="25" fill="#DAB88B"/>
<path d="M28.9206 36V15.392H40.6966C42.7873 15.392 44.398 15.8933 45.5286 16.896C46.6593 17.8987 47.2246 19.3173 47.2246 21.152C47.2246 22.1973 47.0326 23.0827 46.6486 23.808C46.286 24.5333 45.7953 25.1093 45.1766 25.536C46.03 25.8987 46.702 26.4 47.1926 27.04C47.6833 27.6587 47.9286 28.5867 47.9286 29.824C47.9286 31.7653 47.31 33.28 46.0726 34.368C44.8353 35.456 43.1073 36 40.8886 36H28.9206ZM35.4486 23.456H38.8406C40.078 23.456 40.6966 22.9013 40.6966 21.792C40.6966 21.2587 40.5366 20.8533 40.2166 20.576C39.918 20.2773 39.4273 20.128 38.7446 20.128H35.4486V23.456ZM35.4486 31.296H38.9686C40.27 31.296 40.9206 30.6987 40.9206 29.504C40.9206 28.3947 40.2486 27.84 38.9046 27.84H35.4486V31.296ZM48.0931 36L55.9971 15.392H63.1971L71.1331 36H63.9651L62.3651 31.904H56.8291L55.2611 36H48.0931ZM57.6611 27.104H61.5331L59.5811 22.112L57.6611 27.104ZM73.0456 36V15.392H84.1816C85.9096 15.392 87.3283 15.7227 88.4376 16.384C89.5683 17.024 90.4003 17.9093 90.9336 19.04C91.4883 20.1707 91.7656 21.4613 91.7656 22.912C91.7656 24.2987 91.4136 25.5253 90.7096 26.592C90.0056 27.6373 89.1203 28.4693 88.0536 29.088C88.459 29.408 88.8003 29.8773 89.0776 30.496L91.4776 36H84.3096L82.1976 31.232C82.0483 30.912 81.8883 30.688 81.7176 30.56C81.547 30.432 81.2803 30.368 80.9176 30.368H79.9256V36H73.0456ZM79.9256 25.056H82.4536C83.9896 25.056 84.7576 24.3413 84.7576 22.912C84.7576 21.4613 84.043 20.736 82.6136 20.736H79.9256V25.056ZM93.6706 36V15.392H100.551V36H93.6706ZM103.108 36V15.392H109.988V21.92L115.364 15.392H123.14L116.004 23.904L123.716 36H116.42L111.78 28.256L109.988 30.336V36H103.108Z" fill="white"/>
</svg>
