<svg width="96" height="21" viewBox="0 0 96 21" fill="none" xmlns="http://www.w3.org/2000/svg">
<path d="M0.420625 21V0.391998H12.1966C14.2873 0.391998 15.898 0.893332 17.0286 1.896C18.1593 2.89867 18.7246 4.31733 18.7246 6.152C18.7246 7.19733 18.5326 8.08267 18.1486 8.808C17.786 9.53333 17.2953 10.1093 16.6766 10.536C17.53 10.8987 18.202 11.4 18.6926 12.04C19.1833 12.6587 19.4286 13.5867 19.4286 14.824C19.4286 16.7653 18.81 18.28 17.5726 19.368C16.3353 20.456 14.6073 21 12.3886 21H0.420625ZM6.94863 8.456H10.3406C11.578 8.456 12.1966 7.90133 12.1966 6.792C12.1966 6.25867 12.0366 5.85333 11.7166 5.576C11.418 5.27733 10.9273 5.128 10.2446 5.128H6.94863V8.456ZM6.94863 16.296H10.4686C11.77 16.296 12.4206 15.6987 12.4206 14.504C12.4206 13.3947 11.7486 12.84 10.4046 12.84H6.94863V16.296ZM19.5931 21L27.4971 0.391998H34.6971L42.6331 21H35.4651L33.8651 16.904H28.3291L26.7611 21H19.5931ZM29.1611 12.104H33.0331L31.0811 7.112L29.1611 12.104ZM44.5456 21V0.391998H55.6816C57.4096 0.391998 58.8283 0.722665 59.9376 1.384C61.0683 2.024 61.9003 2.90933 62.4336 4.04C62.9883 5.17067 63.2656 6.46133 63.2656 7.912C63.2656 9.29867 62.9136 10.5253 62.2096 11.592C61.5056 12.6373 60.6203 13.4693 59.5536 14.088C59.959 14.408 60.3003 14.8773 60.5776 15.496L62.9776 21H55.8096L53.6976 16.232C53.5483 15.912 53.3883 15.688 53.2176 15.56C53.047 15.432 52.7803 15.368 52.4176 15.368H51.4256V21H44.5456ZM51.4256 10.056H53.9536C55.4896 10.056 56.2576 9.34133 56.2576 7.912C56.2576 6.46133 55.543 5.736 54.1136 5.736H51.4256V10.056ZM65.1706 21V0.391998H72.0506V21H65.1706ZM74.6081 21V0.391998H81.4881V6.92L86.8641 0.391998H94.6401L87.5041 8.904L95.2161 21H87.9201L83.2801 13.256L81.4881 15.336V21H74.6081Z" fill="#4E4D4D"/>
</svg>
